<svg viewBox="0 0 46 52" xmlns="http://www.w3.org/2000/svg"><path d="m27.1667 18.6667-5.3334 2.6666m0 0-5.3333-2.6666m5.3333 2.6666v6.6667m21.3334-17.3333-5.3334 2.6666m5.3334-2.6666-5.3334-2.6667m5.3334 2.6667v6.6666m-16-14.6666-5.3334-2.6667-5.3333 2.6667m-16 8 5.3333-2.6667m-5.3333 2.6667 5.3333 2.6666m-5.3333-2.6666v6.6666m21.3333 30.6667-5.3333-2.6667m5.3333 2.6667 5.3334-2.6667m-5.3334 2.6667v-6.6667m-16-1.3333-5.3333-2.6667v-6.6666m37.3333 9.3333 5.3334-2.6667v-6.6666" fill="none" stroke="currentColor" stroke-linecap="round" stroke-linejoin="round" stroke-width="3" transform="translate(1.167 2)"/></svg>
