<svg viewBox="0 0 52 52" xmlns="http://www.w3.org/2000/svg"><path d="m16 0v5.3333zm16 0v5.3333zm-16 42.6667v5.3333zm16 0v5.3333zm-26.6667-26.6667h-5.3333zm0 16h-5.3333zm42.6667-16h-5.3333zm0 16h-5.3333zm-37.3333 10.6667h26.6666c1.4145 0 2.7711-.5619 3.7713-1.5621s1.5621-2.3568 1.5621-3.7713v-26.6666c0-1.4145-.5619-2.7711-1.5621-3.7713s-2.3568-1.5621-3.7713-1.5621h-26.6666c-1.4145 0-2.7711.5619-3.7713 1.5621s-1.5621 2.3568-1.5621 3.7713v26.6666c0 1.4145.5619 2.7711 1.5621 3.7713s2.3568 1.5621 3.7713 1.5621zm5.3333-26.6667h16v16h-16z" fill="none" stroke="currentColor" stroke-linecap="round" stroke-linejoin="round" stroke-width="3" transform="translate(2 2)"/></svg>
