<svg viewBox="0 0 49 52" xmlns="http://www.w3.org/2000/svg"><path d="m24 21.3382c0 9.3786-2.6907 18.1306-7.3413 25.5226m-9.1734-5.44.144-.24c3.7401-5.9415 5.718-12.822 5.704-19.8426 0-2.829 1.1238-5.5421 3.1242-7.5425s4.7135-3.1242 7.5425-3.1242 5.5421 1.1238 7.5425 3.1242 3.1242 4.7135 3.1242 7.5425c0 2.712-.1867 5.384-.5414 8m8.568 11.0186c1.72-6.0426 2.64-12.424 2.64-19.0186.0009-3.7452-.9843-7.4246-2.8563-10.6684-1.872-3.24369997-4.565-5.93749997-7.8083-7.81039997-3.2432-1.873-6.9223-2.85940003-10.6675-2.85940003s-7.4244.98560003-10.6679 2.85820003m-13.3333 30.11729997c1.7067-3.5173 2.6667-7.4667 2.6667-11.6373 0-3.8854 1.04-7.528 2.8533-10.6667m22.9573 36.9173c1.646-3.284 2.9781-6.7161 3.9787-10.2506z" fill="none" stroke="currentColor" stroke-linecap="round" stroke-linejoin="round" stroke-width="3" transform="translate(2 1.9952)"/></svg>
